/* XPM */
static char *_560c0c54e7e4d73961b36247b0d41e7KVUOwIoEE2Yf0oi8[] = {
/* columns rows colors chars-per-pixel */
"64 64 17 1 ",
"  c SeaGreen",
". c #449466",
"X c #579C74",
"o c #68A580",
"O c #77AC8C",
"+ c #86B498",
"@ c #93BCA3",
"# c #A0C3AD",
"$ c #ACCAB8",
"% c #B8D1C1",
"& c #C3D8CB",
"* c #CEDFD4",
"= c #D8E6DD",
"- c #E3ECE6",
"; c #ECF3EF",
": c #F6F9F7",
"> c white",
/* pixels */
"                                                                ",
"                                                                ",
"                                                                ",
"                                                                ",
"                                                                ",
"                                                                ",
"                                                                ",
"                                                                ",
"                                                                ",
"                                                                ",
"                                                                ",
"                                                                ",
"                                                                ",
"                                                                ",
"                                                                ",
"                                                                ",
"                                                                ",
"                                                                ",
"                                                                ",
"                                                                ",
"                                                                ",
"              O                                 XO.             ",
"          X&:>>>;&+=@ o===========$o         O*:>>>>=@&%        ",
"         +>>>&+@*>>>$ X$;>>>>&$->>>>=.     .*>>:$OO%>>>=        ",
"        X:>>&    &>>$   .>>>>O  @>>>>&    .->>>o    @>>=        ",
"        #>>>+     ->$    >>>>O   ->>>>    %>>>%      %>=        ",
"        *>>>&     +>$    >>>>O   =>>>>   X>>>>o      .>=        ",
"        $>>>>=O    ;$    >>>>O   =>>>-   %>>>>        &=        ",
"        o>>>>>>;%o       >>>>O  o>>>>+   ->>>=        Xo        ",
"         ->>>>>>>>;O     >>>>Oo@:>>:@    >>>>=                  ",
"         X->>>>>>>>>@    >>>>>>>>>&.     >>>>=                  ",
"           +&>>>>>>>:.   >>>>$:>>>:o     >>>>=                  ",
"        =X   .+->>>>>+   >>>>OO>>>>-.    =>>>>                  ",
"        >&      #>>>>#   >>>>O $>>>>&    %>>>>O        @        ",
"        >>O      =>>>O   >>>>O  =>>>>#   X>>>>=       +>@       ",
"        >>;.     ;>>:    >>>>O  .:>>>>+   $>>>>@     o:-        ",
"        >>>;o   +>>>+   o>>>>*   +>>>>:+   &>>>>&O.o%>:o        ",
"        >:;>>;*=>>;+  o;>>>>>>>@  *>>>>>;o  #:>>>>>>>=.         ",
"        OX O$&==&@    .OOOOOOOOX  .OOOOOO.   .@&==&$O           ",
"                                                                ",
"                                                                ",
"                                                                ",
"                                                                ",
"                                                                ",
"                                                                ",
"                                                                ",
"                                                                ",
"                                                                ",
"                                                                ",
"                                                                ",
"                                                                ",
"                                                                ",
"                                                                ",
"                                                                ",
"                                                                ",
"                                                                ",
"                                                                ",
"                                                                ",
"                                                                ",
"                                                                ",
"                                                                ",
"                                                                ",
"                                                                ",
"                                                                "
};
