/* XPM */
static char *_6d1ab854f8d4febca9b133349510b01l8sgg4tEkRrnAEQp[] = {
/* columns rows colors chars-per-pixel */
"32 32 16 1 ",
"  c SeaGreen",
". c #449466",
"X c #579C74",
"o c #68A580",
"O c #77AC8C",
"+ c #86B498",
"@ c #93BCA3",
"# c #A0C3AD",
"$ c #ACCAB8",
"% c #C3D8CB",
"& c #CEDFD4",
"* c #D8E6DD",
"= c #E3ECE6",
"- c #ECF3EF",
"; c #F6F9F7",
": c white",
/* pixels */
"                                ",
"                                ",
"                                ",
"                                ",
"                                ",
"                                ",
"                                ",
"                                ",
"                                ",
"                                ",
"             O$*%$X#X           ",
"            *:;%$-::O           ",
"           $::@  .=:$           ",
"           *::@   O:$           ",
"           *::;$.  *$           ",
"           #:::::&O             ",
"           .*::::::&.           ",
"             $-:::::%           ",
"          o&   o%:::-           ",
"          O:#    +:::           ",
"          O:;o   X::=           ",
"           ::;+.o*::o           ",
"           *#&::::%X            ",
"               ..               ",
"                                ",
"                                ",
"                                ",
"                                ",
"                                ",
"                                ",
"                                ",
"                                "
};
