/* XPM */
static char *_189223c804e4ed78e884636a6f89369PPm5BVSNdDYL6MQ5[] = {
/* columns rows colors chars-per-pixel */
"16 16 17 1 ",
"  c SeaGreen",
". c #449466",
"X c #579C74",
"o c #68A580",
"O c #77AC8C",
"+ c #86B498",
"@ c #93BCA3",
"# c #A0C3AD",
"$ c #ACCAB8",
"% c #B8D1C1",
"& c #C3D8CB",
"* c #CEDFD4",
"= c #D8E6DD",
"- c #E3ECE6",
"; c #ECF3EF",
": c #F6F9F7",
"> c white",
/* pixels */
"                ",
"                ",
"                ",
"      O$@OX@    ",
"    X;>;->>=    ",
"    &>>X X:-    ",
"    >>>&X +>    ",
"    :>>>>-#     ",
"    #>>>>>>*    ",
"   .oO*>>>>>X   ",
"   O:. .@:>>#   ",
"   O>*.  ->>o   ",
"   O>>;%&>>$    ",
"   X@X#$$$X     ",
"                ",
"                "
};
