/* XPM */
static char *_ef4d81ad4014c8ff84aaf48debdfaa8FhbgdE3UG3mpcuYc[] = {
/* columns rows colors chars-per-pixel */
"128 128 17 1 ",
"  c SeaGreen",
". c #449466",
"X c #579C74",
"o c #68A580",
"O c #77AC8C",
"+ c #86B498",
"@ c #93BCA3",
"# c #A0C3AD",
"$ c #ACCAB8",
"% c #B8D1C1",
"& c #C3D8CB",
"* c #CEDFD4",
"= c #D8E6DD",
"- c #E3ECE6",
"; c #ECF3EF",
": c #F6F9F7",
"> c white",
/* pixels */
"                                                                                                                                ",
"                                                                                                                                ",
"                                                                                                                                ",
"                                                                                                                                ",
"                                                                                                                                ",
"                                                                                                                                ",
"                                                                                                                                ",
"                                                                                                                                ",
"                                                                                                                                ",
"                                                                                                                                ",
"                                                                                                                                ",
"                                                                                                                                ",
"                                                                                                                                ",
"                                                                                                                                ",
"                                                                                                                                ",
"                                                                                                                                ",
"                                                                                                                                ",
"                                                                                                                                ",
"                                                                                                                                ",
"                                                                                                                                ",
"                                                                                                                                ",
"                                                                                                                                ",
"                                                                                                                                ",
"                                                                                                                                ",
"                                                                                                                                ",
"                                                                                                                                ",
"                                                                                                                                ",
"                                                                                                                                ",
"                                                                                                                                ",
"                                                                                                                                ",
"                                                                                                                                ",
"                                                                                                                                ",
"                                                                                                                                ",
"                                                                                                                                ",
"                                                                                                                                ",
"                                                                                                                                ",
"                                                                                                                                ",
"                                                                                                                                ",
"                                                                                                                                ",
"                                                                                                                                ",
"                                                                                                                                ",
"                                                                                                                                ",
"                                                                                                                                ",
"                                                                                                                                ",
"                                                                                                                                ",
"                                                                                                                                ",
"                                                                                                                                ",
"                                                                                                                                ",
"                                                                                                                                ",
"                                                                                                                                ",
"                                                                                                                                ",
"                              X%=>>>>-&@. .Oo   XOOOOOOOOOOOOOOOOO                   .@*->>>>-&@. XOX                           ",
"                            X=>>>>>>>>>>:$->=   $>>>>>>>>>>>>>>>>>>-%X             X&>>>>>>>>>>>:%:>$                           ",
"                           o:>>>>$X  +->>>>>=   X$=>>>>>>>;$$*:>>>>>>>$           @:>>>>*o  .@;>>>>>$                           ",
"                          .->>>>@      &>>>>=      O>>>>>>=    #>>>>>>>#         &>>>>>@      .&>>>>$                           ",
"                          %>>>>-        %>>>=       ;>>>>>=     $>>>>>>:.       %>>>>>%        .->>>$                           ",
"                          :>>>>$        .;>>=       =>>>>>=     .>>>>>>>O      +>>>>>:.         X>>>$                           ",
"                         o>>>>>*         +>>=       =>>>>>=      ->>>>>>@     .;>>>>>&           &>>$                           ",
"                         @>>>>>>o         ;>=       =>>>>>=      =>>>>>>+     #>>>>>>+           X>>$                           ",
"                         +>>>>>>:#        @>=       =>>>>>=      ;>>>>>>o     ;>>>>>>             *>$                           ",
"                         o>>>>>>>>;%o      $@       =>>>>>=     X>>>>>>;     o>>>>>>;             @>*                           ",
"                          ;>>>>>>>>>>;%o            =>>>>>=     $>>>>>>+     @>>>>>>=                                           ",
"                          @>>>>>>>>>>>>>-#.         =>>>>>=    @>>>>>>@      $>>>>>>=                                           ",
"                           =>>>>>>>>>>>>>>;O        =>>>>>-OO#=>>>>>=o       *>>>>>>=                                           ",
"                           .&>>>>>>>>>>>>>>>@       =>>>>>>>>>>>>>=X         =>>>>>>=                                           ",
"                             O=>>>>>>>>>>>>>>X      =>>>>>:;>>>>>>>o         *>>>>>>=                                           ",
"                               X#->>>>>>>>>>>&      =>>>>>=.->>>>>>:.        $>>>>>>=                                           ",
"                         Oo       X#->>>>>>>>>      =>>>>>= o:>>>>>>=        #>>>>>>:                                           ",
"                         >>X         O->>>>>>>o     =>>>>>=  +>>>>>>>%       o>>>>>>>X                                          ",
"                         >>&          .;>>>>>>O     =>>>>>=   %>>>>>>>+       ;>>>>>>@             XO                           ",
"                         >>>o          #>>>>>>X     =>>>>>=    =>>>>>>:o      $>>>>>>=             *>$                          ",
"                         >>>-          .>>>>>:      =>>>>>=    X:>>>>>>-.     .:>>>>>>O           #>>O                          ",
"                         >>>>%         .>>>>>%      =>>>>>=     +>>>>>>>=      +>>>>>>;o         @>>*                           ",
"                         >>>>>%        #>>>>:.      :>>>>>=      *>>>>>>>&      %>>>>>>:+       $>>-.                           ",
"                         ;>>>>>=.     @>>>>>O      #>>>>>>>#     .:>>>>>>>=X     %>>>>>>>&+X.O#;>>-.                            ",
"                         =>>:>>>:&$$$->>>>;o    @=>>>>>>>>>>>=    +>>>>>>>>>-@    +;>>>>>>>>>>>>>=.                             ",
"                         =>@.#->>>>>>>>>;$.     $>>>>>>>>>>>>>     *>>>>>>>>>$      @->>>>>>>>>=O                               ",
"                               X+$$$$$#o                                              X@$$$$$@X                                 ",
"                                                                                                                                ",
"                                                                                                                                ",
"                                                                                                                                ",
"                                                                                                                                ",
"                                                                                                                                ",
"                                                                                                                                ",
"                                                                                                                                ",
"                                                                                                                                ",
"                                                                                                                                ",
"                                                                                                                                ",
"                                                                                                                                ",
"                                                                                                                                ",
"                                                                                                                                ",
"                                                                                                                                ",
"                                                                                                                                ",
"                                                                                                                                ",
"                                                                                                                                ",
"                                                                                                                                ",
"                                                                                                                                ",
"                                                                                                                                ",
"                                                                                                                                ",
"                                                                                                                                ",
"                                                                                                                                ",
"                                                                                                                                ",
"                                                                                                                                ",
"                                                                                                                                ",
"                                                                                                                                ",
"                                                                                                                                ",
"                                                                                                                                ",
"                                                                                                                                ",
"                                                                                                                                ",
"                                                                                                                                ",
"                                                                                                                                ",
"                                                                                                                                ",
"                                                                                                                                ",
"                                                                                                                                ",
"                                                                                                                                ",
"                                                                                                                                ",
"                                                                                                                                ",
"                                                                                                                                ",
"                                                                                                                                ",
"                                                                                                                                ",
"                                                                                                                                ",
"                                                                                                                                ",
"                                                                                                                                ",
"                                                                                                                                ",
"                                                                                                                                ",
"                                                                                                                                ",
"                                                                                                                                ",
"                                                                                                                                "
};
